{
	"asset":{
		"generator":"Khronos glTF Blender I/O v5.0.21",
		"version":"2.0"
	},
	"scene":0,
	"scenes":[
		{
			"name":"Scene",
			"nodes":[
				22
			]
		}
	],
	"nodes":[
		{
			"mesh":0,
			"name":"Building_1"
		},
		{
			"mesh":1,
			"name":"Building_11"
		},
		{
			"mesh":2,
			"name":"Building_12"
		},
		{
			"mesh":3,
			"name":"Building_13"
		},
		{
			"mesh":4,
			"name":"Building_14"
		},
		{
			"mesh":5,
			"name":"Building_15"
		},
		{
			"mesh":6,
			"name":"Building_16"
		},
		{
			"mesh":7,
			"name":"Building_17"
		},
		{
			"mesh":8,
			"name":"Building_18"
		},
		{
			"mesh":9,
			"name":"Building_19"
		},
		{
			"mesh":10,
			"name":"Building_2"
		},
		{
			"mesh":11,
			"name":"Building_20"
		},
		{
			"mesh":12,
			"name":"Building_21"
		},
		{
			"mesh":13,
			"name":"Building_22"
		},
		{
			"mesh":14,
			"name":"Building_4"
		},
		{
			"mesh":15,
			"name":"Building_7"
		},
		{
			"mesh":16,
			"name":"Building_8"
		},
		{
			"mesh":17,
			"name":"Building_9"
		},
		{
			"mesh":18,
			"name":"Central Shops"
		},
		{
			"mesh":19,
			"name":"Clothe shops"
		},
		{
			"mesh":20,
			"name":"Side Coffee Shops"
		},
		{
			"mesh":21,
			"name":"Village Cinema"
		},
		{
			"children":[
				0,
				1,
				2,
				3,
				4,
				5,
				6,
				7,
				8,
				9,
				10,
				11,
				12,
				13,
				14,
				15,
				16,
				17,
				18,
				19,
				20,
				21
			],
			"name":"world",
			"translation":[
				-21.841066360473633,
				0,
				14.560708999633789
			]
		}
	],
	"materials":[
		{
			"name":"LightGray",
			"pbrMetallicRoughness":{
				"baseColorFactor":[
					0.2606775462627411,
					0.2428434193134308,
					0.2561413049697876,
					1
				],
				"metallicFactor":0
			}
		}
	],
	"meshes":[
		{
			"name":"Building_1",
			"primitives":[
				{
					"attributes":{
						"POSITION":0,
						"NORMAL":1
					},
					"indices":2,
					"material":0
				}
			]
		},
		{
			"name":"Building_11",
			"primitives":[
				{
					"attributes":{
						"POSITION":3,
						"NORMAL":4
					},
					"indices":5,
					"material":0
				}
			]
		},
		{
			"name":"Building_12",
			"primitives":[
				{
					"attributes":{
						"POSITION":6,
						"NORMAL":7
					},
					"indices":8,
					"material":0
				}
			]
		},
		{
			"name":"Building_13",
			"primitives":[
				{
					"attributes":{
						"POSITION":9,
						"NORMAL":10
					},
					"indices":11,
					"material":0
				}
			]
		},
		{
			"name":"Building_14",
			"primitives":[
				{
					"attributes":{
						"POSITION":12,
						"NORMAL":13
					},
					"indices":14,
					"material":0
				}
			]
		},
		{
			"name":"Building_15",
			"primitives":[
				{
					"attributes":{
						"POSITION":15,
						"NORMAL":16
					},
					"indices":17,
					"material":0
				}
			]
		},
		{
			"name":"Building_16",
			"primitives":[
				{
					"attributes":{
						"POSITION":18,
						"NORMAL":19
					},
					"indices":20,
					"material":0
				}
			]
		},
		{
			"name":"Building_17",
			"primitives":[
				{
					"attributes":{
						"POSITION":21,
						"NORMAL":22
					},
					"indices":23,
					"material":0
				}
			]
		},
		{
			"name":"Building_18",
			"primitives":[
				{
					"attributes":{
						"POSITION":24,
						"NORMAL":25
					},
					"indices":26,
					"material":0
				}
			]
		},
		{
			"name":"Building_19",
			"primitives":[
				{
					"attributes":{
						"POSITION":27,
						"NORMAL":28
					},
					"indices":29,
					"material":0
				}
			]
		},
		{
			"name":"Building_2",
			"primitives":[
				{
					"attributes":{
						"POSITION":30,
						"NORMAL":31
					},
					"indices":32,
					"material":0
				}
			]
		},
		{
			"name":"Building_20",
			"primitives":[
				{
					"attributes":{
						"POSITION":33,
						"NORMAL":34
					},
					"indices":35,
					"material":0
				}
			]
		},
		{
			"name":"Building_21",
			"primitives":[
				{
					"attributes":{
						"POSITION":36,
						"NORMAL":37
					},
					"indices":38,
					"material":0
				}
			]
		},
		{
			"name":"Building_22",
			"primitives":[
				{
					"attributes":{
						"POSITION":39,
						"NORMAL":40
					},
					"indices":41,
					"material":0
				}
			]
		},
		{
			"name":"Building_4",
			"primitives":[
				{
					"attributes":{
						"POSITION":42,
						"NORMAL":43
					},
					"indices":44,
					"material":0
				}
			]
		},
		{
			"name":"Building_7",
			"primitives":[
				{
					"attributes":{
						"POSITION":45,
						"NORMAL":46
					},
					"indices":47,
					"material":0
				}
			]
		},
		{
			"name":"Building_8",
			"primitives":[
				{
					"attributes":{
						"POSITION":48,
						"NORMAL":49
					},
					"indices":50,
					"material":0
				}
			]
		},
		{
			"name":"Building_9",
			"primitives":[
				{
					"attributes":{
						"POSITION":51,
						"NORMAL":52
					},
					"indices":53,
					"material":0
				}
			]
		},
		{
			"name":"Building_6",
			"primitives":[
				{
					"attributes":{
						"POSITION":54,
						"NORMAL":55
					},
					"indices":56,
					"material":0
				}
			]
		},
		{
			"name":"Building_10",
			"primitives":[
				{
					"attributes":{
						"POSITION":57,
						"NORMAL":58
					},
					"indices":59,
					"material":0
				}
			]
		},
		{
			"name":"Building_3",
			"primitives":[
				{
					"attributes":{
						"POSITION":60,
						"NORMAL":61
					},
					"indices":62,
					"material":0
				}
			]
		},
		{
			"name":"Building_5",
			"primitives":[
				{
					"attributes":{
						"POSITION":63,
						"NORMAL":64
					},
					"indices":65,
					"material":0
				}
			]
		}
	],
	"accessors":[
		{
			"bufferView":0,
			"componentType":5126,
			"count":54,
			"max":[
				54.8481559753418,
				0.5,
				-1.0044077634811401
			],
			"min":[
				-11.568146705627441,
				0,
				-34.17487335205078
			],
			"type":"VEC3"
		},
		{
			"bufferView":1,
			"componentType":5126,
			"count":54,
			"type":"VEC3"
		},
		{
			"bufferView":2,
			"componentType":5123,
			"count":96,
			"type":"SCALAR"
		},
		{
			"bufferView":3,
			"componentType":5126,
			"count":24,
			"max":[
				25.656936645507812,
				1.3799999952316284,
				-7.540177822113037
			],
			"min":[
				14.30147933959961,
				0.8799999952316284,
				-9.74116325378418
			],
			"type":"VEC3"
		},
		{
			"bufferView":4,
			"componentType":5126,
			"count":24,
			"type":"VEC3"
		},
		{
			"bufferView":5,
			"componentType":5123,
			"count":36,
			"type":"SCALAR"
		},
		{
			"bufferView":6,
			"componentType":5126,
			"count":219,
			"max":[
				42.35685729980469,
				2.2799999713897705,
				-7.234981060028076
			],
			"min":[
				27.14510154724121,
				0.8799999952316284,
				-15.36823558807373
			],
			"type":"VEC3"
		},
		{
			"bufferView":7,
			"componentType":5126,
			"count":219,
			"type":"VEC3"
		},
		{
			"bufferView":8,
			"componentType":5123,
			"count":426,
			"type":"SCALAR"
		},
		{
			"bufferView":9,
			"componentType":5126,
			"count":18,
			"max":[
				42.989200592041016,
				1.5800000429153442,
				-22.016803741455078
			],
			"min":[
				41.422245025634766,
				0.8799999952316284,
				-24.61091423034668
			],
			"type":"VEC3"
		},
		{
			"bufferView":10,
			"componentType":5126,
			"count":18,
			"type":"VEC3"
		},
		{
			"bufferView":11,
			"componentType":5123,
			"count":24,
			"type":"SCALAR"
		},
		{
			"bufferView":12,
			"componentType":5126,
			"count":66,
			"max":[
				41.7794189453125,
				1.3799999952316284,
				-16.367769241333008
			],
			"min":[
				33.41434097290039,
				0.8799999952316284,
				-24.350177764892578
			],
			"type":"VEC3"
		},
		{
			"bufferView":13,
			"componentType":5126,
			"count":66,
			"type":"VEC3"
		},
		{
			"bufferView":14,
			"componentType":5123,
			"count":120,
			"type":"SCALAR"
		},
		{
			"bufferView":15,
			"componentType":5126,
			"count":4,
			"max":[
				1.1760061979293823,
				1.3799999952316284,
				-8.477485656738281
			],
			"min":[
				-0.5116398334503174,
				0.8799999952316284,
				-8.585824012756348
			],
			"type":"VEC3"
		},
		{
			"bufferView":16,
			"componentType":5126,
			"count":4,
			"type":"VEC3"
		},
		{
			"bufferView":17,
			"componentType":5123,
			"count":6,
			"type":"SCALAR"
		},
		{
			"bufferView":18,
			"componentType":5126,
			"count":16,
			"max":[
				4.866786479949951,
				1.5800000429153442,
				-10.309053421020508
			],
			"min":[
				-0.7131360769271851,
				0.8799999952316284,
				-12.084763526916504
			],
			"type":"VEC3"
		},
		{
			"bufferView":19,
			"componentType":5126,
			"count":16,
			"type":"VEC3"
		},
		{
			"bufferView":20,
			"componentType":5123,
			"count":24,
			"type":"SCALAR"
		},
		{
			"bufferView":21,
			"componentType":5126,
			"count":14,
			"max":[
				5.631699085235596,
				1.5800000429153442,
				-12.630537986755371
			],
			"min":[
				1.4402365684509277,
				0.8799999952316284,
				-15.269949913024902
			],
			"type":"VEC3"
		},
		{
			"bufferView":22,
			"componentType":5126,
			"count":14,
			"type":"VEC3"
		},
		{
			"bufferView":23,
			"componentType":5123,
			"count":24,
			"type":"SCALAR"
		},
		{
			"bufferView":24,
			"componentType":5126,
			"count":10,
			"max":[
				41.25307083129883,
				1.3799999952316284,
				-18.95107650756836
			],
			"min":[
				40.54115676879883,
				0.8799999952316284,
				-20.300777435302734
			],
			"type":"VEC3"
		},
		{
			"bufferView":25,
			"componentType":5126,
			"count":10,
			"type":"VEC3"
		},
		{
			"bufferView":26,
			"componentType":5123,
			"count":12,
			"type":"SCALAR"
		},
		{
			"bufferView":27,
			"componentType":5126,
			"count":66,
			"max":[
				5.631699085235596,
				2.2799999713897705,
				-12.630537986755371
			],
			"min":[
				1.4402365684509277,
				0.8799999952316284,
				-15.269949913024902
			],
			"type":"VEC3"
		},
		{
			"bufferView":28,
			"componentType":5126,
			"count":66,
			"type":"VEC3"
		},
		{
			"bufferView":29,
			"componentType":5123,
			"count":132,
			"type":"SCALAR"
		},
		{
			"bufferView":30,
			"componentType":5126,
			"count":21,
			"max":[
				6.149125099182129,
				1.3799999952316284,
				-5.172478199005127
			],
			"min":[
				-0.5116398334503174,
				0.8799999952316284,
				-8.770254135131836
			],
			"type":"VEC3"
		},
		{
			"bufferView":31,
			"componentType":5126,
			"count":21,
			"type":"VEC3"
		},
		{
			"bufferView":32,
			"componentType":5123,
			"count":33,
			"type":"SCALAR"
		},
		{
			"bufferView":33,
			"componentType":5126,
			"count":54,
			"max":[
				4.866786479949951,
				2.2799999713897705,
				-10.309053421020508
			],
			"min":[
				-0.7131360769271851,
				0.8799999952316284,
				-12.084763526916504
			],
			"type":"VEC3"
		},
		{
			"bufferView":34,
			"componentType":5126,
			"count":54,
			"type":"VEC3"
		},
		{
			"bufferView":35,
			"componentType":5123,
			"count":108,
			"type":"SCALAR"
		},
		{
			"bufferView":36,
			"componentType":5126,
			"count":5,
			"max":[
				6.149125099182129,
				1.3799999952316284,
				-5.172478199005127
			],
			"min":[
				-0.5116398334503174,
				1.3799999952316284,
				-8.770254135131836
			],
			"type":"VEC3"
		},
		{
			"bufferView":37,
			"componentType":5126,
			"count":5,
			"type":"VEC3"
		},
		{
			"bufferView":38,
			"componentType":5123,
			"count":9,
			"type":"SCALAR"
		},
		{
			"bufferView":39,
			"componentType":5126,
			"count":10,
			"max":[
				6.324857234954834,
				1.3799999952316284,
				-5.06800651550293
			],
			"min":[
				-0.6757681369781494,
				1.3799999952316284,
				-8.873801231384277
			],
			"type":"VEC3"
		},
		{
			"bufferView":40,
			"componentType":5126,
			"count":10,
			"type":"VEC3"
		},
		{
			"bufferView":41,
			"componentType":5123,
			"count":30,
			"type":"SCALAR"
		},
		{
			"bufferView":42,
			"componentType":5126,
			"count":405,
			"max":[
				40.23976516723633,
				2.2799999713897705,
				-20.727340698242188
			],
			"min":[
				-7.6733222007751465,
				0.8799999952316284,
				-31.161752700805664
			],
			"type":"VEC3"
		},
		{
			"bufferView":43,
			"componentType":5126,
			"count":405,
			"type":"VEC3"
		},
		{
			"bufferView":44,
			"componentType":5123,
			"count":858,
			"type":"SCALAR"
		},
		{
			"bufferView":45,
			"componentType":5126,
			"count":30,
			"max":[
				11.869431495666504,
				1.3799999952316284,
				-17.42060661315918
			],
			"min":[
				8.355093002319336,
				0.8799999952316284,
				-19.465829849243164
			],
			"type":"VEC3"
		},
		{
			"bufferView":46,
			"componentType":5126,
			"count":30,
			"type":"VEC3"
		},
		{
			"bufferView":47,
			"componentType":5123,
			"count":48,
			"type":"SCALAR"
		},
		{
			"bufferView":48,
			"componentType":5126,
			"count":24,
			"max":[
				10.260435104370117,
				1.3799999952316284,
				-10.663651466369629
			],
			"min":[
				6.151773452758789,
				0.8799999952316284,
				-15.899282455444336
			],
			"type":"VEC3"
		},
		{
			"bufferView":49,
			"componentType":5126,
			"count":24,
			"type":"VEC3"
		},
		{
			"bufferView":50,
			"componentType":5123,
			"count":36,
			"type":"SCALAR"
		},
		{
			"bufferView":51,
			"componentType":5126,
			"count":54,
			"max":[
				11.956741333007812,
				1.3799999952316284,
				-6.983097076416016
			],
			"min":[
				4.991765022277832,
				0.8799999952316284,
				-9.216462135314941
			],
			"type":"VEC3"
		},
		{
			"bufferView":52,
			"componentType":5126,
			"count":54,
			"type":"VEC3"
		},
		{
			"bufferView":53,
			"componentType":5123,
			"count":96,
			"type":"SCALAR"
		},
		{
			"bufferView":54,
			"componentType":5126,
			"count":574,
			"max":[
				37.06591796875,
				2.2799999713897705,
				-11.87429428100586
			],
			"min":[
				14.049497604370117,
				0.8799999952316284,
				-23.44301414489746
			],
			"type":"VEC3"
		},
		{
			"bufferView":55,
			"componentType":5126,
			"count":574,
			"type":"VEC3"
		},
		{
			"bufferView":56,
			"componentType":5123,
			"count":1245,
			"type":"SCALAR"
		},
		{
			"bufferView":57,
			"componentType":5126,
			"count":283,
			"max":[
				18.188095092773438,
				2.2799999713897705,
				-11.57579231262207
			],
			"min":[
				12.84174633026123,
				0.8799999952316284,
				-18.268096923828125
			],
			"type":"VEC3"
		},
		{
			"bufferView":58,
			"componentType":5126,
			"count":283,
			"type":"VEC3"
		},
		{
			"bufferView":59,
			"componentType":5123,
			"count":576,
			"type":"SCALAR"
		},
		{
			"bufferView":60,
			"componentType":5126,
			"count":184,
			"max":[
				7.667245388031006,
				2.2799999713897705,
				-8.477485656738281
			],
			"min":[
				-5.726456642150879,
				0.8799999952316284,
				-21.801132202148438
			],
			"type":"VEC3"
		},
		{
			"bufferView":61,
			"componentType":5126,
			"count":184,
			"type":"VEC3"
		},
		{
			"bufferView":62,
			"componentType":5123,
			"count":384,
			"type":"SCALAR"
		},
		{
			"bufferView":63,
			"componentType":5126,
			"count":363,
			"max":[
				51.68488311767578,
				2.2799999713897705,
				-10.21225643157959
			],
			"min":[
				37.78847122192383,
				0.8799999952316284,
				-31.58616828918457
			],
			"type":"VEC3"
		},
		{
			"bufferView":64,
			"componentType":5126,
			"count":363,
			"type":"VEC3"
		},
		{
			"bufferView":65,
			"componentType":5123,
			"count":708,
			"type":"SCALAR"
		}
	],
	"bufferViews":[
		{
			"buffer":0,
			"byteLength":648,
			"byteOffset":0,
			"target":34962
		},
		{
			"buffer":0,
			"byteLength":648,
			"byteOffset":648,
			"target":34962
		},
		{
			"buffer":0,
			"byteLength":192,
			"byteOffset":1296,
			"target":34963
		},
		{
			"buffer":0,
			"byteLength":288,
			"byteOffset":1488,
			"target":34962
		},
		{
			"buffer":0,
			"byteLength":288,
			"byteOffset":1776,
			"target":34962
		},
		{
			"buffer":0,
			"byteLength":72,
			"byteOffset":2064,
			"target":34963
		},
		{
			"buffer":0,
			"byteLength":2628,
			"byteOffset":2136,
			"target":34962
		},
		{
			"buffer":0,
			"byteLength":2628,
			"byteOffset":4764,
			"target":34962
		},
		{
			"buffer":0,
			"byteLength":852,
			"byteOffset":7392,
			"target":34963
		},
		{
			"buffer":0,
			"byteLength":216,
			"byteOffset":8244,
			"target":34962
		},
		{
			"buffer":0,
			"byteLength":216,
			"byteOffset":8460,
			"target":34962
		},
		{
			"buffer":0,
			"byteLength":48,
			"byteOffset":8676,
			"target":34963
		},
		{
			"buffer":0,
			"byteLength":792,
			"byteOffset":8724,
			"target":34962
		},
		{
			"buffer":0,
			"byteLength":792,
			"byteOffset":9516,
			"target":34962
		},
		{
			"buffer":0,
			"byteLength":240,
			"byteOffset":10308,
			"target":34963
		},
		{
			"buffer":0,
			"byteLength":48,
			"byteOffset":10548,
			"target":34962
		},
		{
			"buffer":0,
			"byteLength":48,
			"byteOffset":10596,
			"target":34962
		},
		{
			"buffer":0,
			"byteLength":12,
			"byteOffset":10644,
			"target":34963
		},
		{
			"buffer":0,
			"byteLength":192,
			"byteOffset":10656,
			"target":34962
		},
		{
			"buffer":0,
			"byteLength":192,
			"byteOffset":10848,
			"target":34962
		},
		{
			"buffer":0,
			"byteLength":48,
			"byteOffset":11040,
			"target":34963
		},
		{
			"buffer":0,
			"byteLength":168,
			"byteOffset":11088,
			"target":34962
		},
		{
			"buffer":0,
			"byteLength":168,
			"byteOffset":11256,
			"target":34962
		},
		{
			"buffer":0,
			"byteLength":48,
			"byteOffset":11424,
			"target":34963
		},
		{
			"buffer":0,
			"byteLength":120,
			"byteOffset":11472,
			"target":34962
		},
		{
			"buffer":0,
			"byteLength":120,
			"byteOffset":11592,
			"target":34962
		},
		{
			"buffer":0,
			"byteLength":24,
			"byteOffset":11712,
			"target":34963
		},
		{
			"buffer":0,
			"byteLength":792,
			"byteOffset":11736,
			"target":34962
		},
		{
			"buffer":0,
			"byteLength":792,
			"byteOffset":12528,
			"target":34962
		},
		{
			"buffer":0,
			"byteLength":264,
			"byteOffset":13320,
			"target":34963
		},
		{
			"buffer":0,
			"byteLength":252,
			"byteOffset":13584,
			"target":34962
		},
		{
			"buffer":0,
			"byteLength":252,
			"byteOffset":13836,
			"target":34962
		},
		{
			"buffer":0,
			"byteLength":66,
			"byteOffset":14088,
			"target":34963
		},
		{
			"buffer":0,
			"byteLength":648,
			"byteOffset":14156,
			"target":34962
		},
		{
			"buffer":0,
			"byteLength":648,
			"byteOffset":14804,
			"target":34962
		},
		{
			"buffer":0,
			"byteLength":216,
			"byteOffset":15452,
			"target":34963
		},
		{
			"buffer":0,
			"byteLength":60,
			"byteOffset":15668,
			"target":34962
		},
		{
			"buffer":0,
			"byteLength":60,
			"byteOffset":15728,
			"target":34962
		},
		{
			"buffer":0,
			"byteLength":18,
			"byteOffset":15788,
			"target":34963
		},
		{
			"buffer":0,
			"byteLength":120,
			"byteOffset":15808,
			"target":34962
		},
		{
			"buffer":0,
			"byteLength":120,
			"byteOffset":15928,
			"target":34962
		},
		{
			"buffer":0,
			"byteLength":60,
			"byteOffset":16048,
			"target":34963
		},
		{
			"buffer":0,
			"byteLength":4860,
			"byteOffset":16108,
			"target":34962
		},
		{
			"buffer":0,
			"byteLength":4860,
			"byteOffset":20968,
			"target":34962
		},
		{
			"buffer":0,
			"byteLength":1716,
			"byteOffset":25828,
			"target":34963
		},
		{
			"buffer":0,
			"byteLength":360,
			"byteOffset":27544,
			"target":34962
		},
		{
			"buffer":0,
			"byteLength":360,
			"byteOffset":27904,
			"target":34962
		},
		{
			"buffer":0,
			"byteLength":96,
			"byteOffset":28264,
			"target":34963
		},
		{
			"buffer":0,
			"byteLength":288,
			"byteOffset":28360,
			"target":34962
		},
		{
			"buffer":0,
			"byteLength":288,
			"byteOffset":28648,
			"target":34962
		},
		{
			"buffer":0,
			"byteLength":72,
			"byteOffset":28936,
			"target":34963
		},
		{
			"buffer":0,
			"byteLength":648,
			"byteOffset":29008,
			"target":34962
		},
		{
			"buffer":0,
			"byteLength":648,
			"byteOffset":29656,
			"target":34962
		},
		{
			"buffer":0,
			"byteLength":192,
			"byteOffset":30304,
			"target":34963
		},
		{
			"buffer":0,
			"byteLength":6888,
			"byteOffset":30496,
			"target":34962
		},
		{
			"buffer":0,
			"byteLength":6888,
			"byteOffset":37384,
			"target":34962
		},
		{
			"buffer":0,
			"byteLength":2490,
			"byteOffset":44272,
			"target":34963
		},
		{
			"buffer":0,
			"byteLength":3396,
			"byteOffset":46764,
			"target":34962
		},
		{
			"buffer":0,
			"byteLength":3396,
			"byteOffset":50160,
			"target":34962
		},
		{
			"buffer":0,
			"byteLength":1152,
			"byteOffset":53556,
			"target":34963
		},
		{
			"buffer":0,
			"byteLength":2208,
			"byteOffset":54708,
			"target":34962
		},
		{
			"buffer":0,
			"byteLength":2208,
			"byteOffset":56916,
			"target":34962
		},
		{
			"buffer":0,
			"byteLength":768,
			"byteOffset":59124,
			"target":34963
		},
		{
			"buffer":0,
			"byteLength":4356,
			"byteOffset":59892,
			"target":34962
		},
		{
			"buffer":0,
			"byteLength":4356,
			"byteOffset":64248,
			"target":34962
		},
		{
			"buffer":0,
			"byteLength":1416,
			"byteOffset":68604,
			"target":34963
		}
	],
	"buffers":[
		{
			"byteLength":70020,
			"uri":"mallFinal.bin"
		}
	]
}
